<svg width="38" height="37" viewBox="0 0 38 37" fill="none" xmlns="http://www.w3.org/2000/svg">
<mask id="path-1-outside-1_543_138" maskUnits="userSpaceOnUse" x="0" y="6.41176" width="38" height="31" fill="black">
<rect fill="white" y="6.41176" width="38" height="31"/>
<path d="M4.6399 30.0939C4.08233 30.0939 3.57974 29.8635 3.13211 29.4027C2.68449 28.921 2.30361 28.2194 1.98949 27.2979C1.67537 26.3554 1.43192 25.193 1.25915 23.8107C1.08638 22.4075 1 20.7739 1 18.9099C1 17.0668 1.08638 15.4332 1.25915 14.009C1.43192 12.5639 1.67537 11.3597 1.98949 10.3962C2.30361 9.41189 2.68449 8.66838 3.13211 8.16573C3.57974 7.66308 4.08233 7.41176 4.6399 7.41176C5.40165 7.41176 6.0299 7.83063 6.52464 8.66838C7.01939 9.48519 7.41597 10.7837 7.71439 12.5639L6.17126 14.7002C6.06131 13.7787 5.88854 13.0456 5.65295 12.5011C5.42521 11.9356 5.08753 11.6529 4.6399 11.6529C4.11375 11.6529 3.68968 12.1136 3.3677 13.0352C3.05358 13.9357 2.89652 15.2552 2.89652 16.9935V20.5121C2.89652 22.2504 3.05358 23.5803 3.3677 24.5019C3.68968 25.4025 4.11375 25.8527 4.6399 25.8527C5.07968 25.8527 5.42914 25.5386 5.68829 24.9103C5.9553 24.261 6.15162 23.4861 6.27727 22.5855L7.73795 24.8474C7.43167 26.5229 7.02724 27.8215 6.52464 28.743C6.0299 29.6436 5.40165 30.0939 4.6399 30.0939Z"/>
<path d="M8.89667 29.7169V13.2237H10.6401V16.805H10.699C10.7304 16.3443 10.7853 15.9045 10.8639 15.4856C10.9424 15.0458 11.0445 14.6583 11.1701 14.3232C11.3036 13.9881 11.4607 13.7263 11.6413 13.5378C11.8219 13.3284 12.034 13.2237 12.2774 13.2237H12.5837V17.559H12.1478C11.6374 17.559 11.2565 17.737 11.0052 18.0931C10.7618 18.4491 10.6401 19.1088 10.6401 20.0723V29.7169H8.89667Z"/>
<path d="M17.5209 13.2237H19.1465L16.767 32.2615C16.61 33.5391 16.3862 34.4816 16.0956 35.0889C15.8129 35.6963 15.4045 36 14.8705 36H13.7868V32.3872H14.953L15.165 30.5651L12.9975 13.2237H14.7292L15.6362 20.9205L16.0838 25.6957H16.1545L16.6139 20.9205L17.5209 13.2237Z"/>
<path d="M20.0321 13.2237H21.7755V15.9882H21.8344C21.9208 15.0667 22.1171 14.3127 22.4234 13.7263C22.7375 13.1399 23.0948 12.8467 23.4953 12.8467C24.2806 12.8467 24.8735 13.5797 25.274 15.0458C25.6745 16.5118 25.8748 18.6481 25.8748 21.4546C25.8748 24.261 25.6745 26.4078 25.274 27.8948C24.8735 29.3608 24.2806 30.0939 23.4953 30.0939C23.2911 30.0939 23.0987 30.0101 22.9181 29.8425C22.7375 29.6959 22.5726 29.4865 22.4234 29.2142C22.282 28.921 22.1603 28.5859 22.0582 28.2089C21.9561 27.811 21.8815 27.3921 21.8344 26.9523H21.7755V36H20.0321V13.2237ZM22.9181 26.324C23.2479 26.324 23.5189 26.0203 23.7309 25.4129C23.9508 24.7846 24.0607 23.9469 24.0607 22.8997V20.0408C24.0607 18.9937 23.9508 18.1664 23.7309 17.559C23.5189 16.9307 23.2479 16.6165 22.9181 16.6165C22.5883 16.6165 22.3134 16.8365 22.0935 17.2763C21.8815 17.6951 21.7755 18.2816 21.7755 19.0355V23.905C21.7755 24.6589 21.8815 25.2558 22.0935 25.6957C22.3134 26.1145 22.5883 26.324 22.9181 26.324Z"/>
<path d="M29.2972 29.7169C28.6925 29.7169 28.2331 29.3085 27.919 28.4917C27.6127 27.6748 27.4596 26.4811 27.4596 24.9103V16.8365H26.5879V13.2237H27.0238C27.2594 13.2237 27.4203 13.077 27.5067 12.7838C27.5931 12.4697 27.6363 12.0299 27.6363 11.4644V8.76263H29.203V13.2237H30.4281V16.8365H29.203V26.1041H30.3338V29.7169H29.2972Z"/>
<path d="M34.1022 30.0939C33.6467 30.0939 33.2384 29.8949 32.8771 29.497C32.5237 29.099 32.2214 28.5231 31.9701 27.7691C31.7267 27.0151 31.5382 26.1041 31.4047 25.0359C31.2712 23.9678 31.2044 22.774 31.2044 21.4546C31.2044 20.1351 31.2712 18.9413 31.4047 17.8732C31.5382 16.805 31.7267 15.9045 31.9701 15.1714C32.2214 14.4174 32.5237 13.8415 32.8771 13.4436C33.2384 13.0456 33.6467 12.8467 34.1022 12.8467C34.5577 12.8467 34.9621 13.0456 35.3155 13.4436C35.6768 13.8415 35.9791 14.4174 36.2225 15.1714C36.4738 15.9045 36.6662 16.805 36.7997 17.8732C36.9333 18.9413 37 20.1351 37 21.4546C37 22.774 36.9333 23.9678 36.7997 25.0359C36.6662 26.1041 36.4738 27.0151 36.2225 27.7691C35.9791 28.5231 35.6768 29.099 35.3155 29.497C34.9621 29.8949 34.5577 30.0939 34.1022 30.0939ZM34.1022 26.4182C34.4478 26.4182 34.7148 26.1355 34.9032 25.57C35.0917 25.0045 35.1859 24.1982 35.1859 23.151V19.7895C35.1859 18.7423 35.0917 17.936 34.9032 17.3705C34.7148 16.805 34.4478 16.5223 34.1022 16.5223C33.7567 16.5223 33.4897 16.805 33.3012 17.3705C33.1127 17.936 33.0185 18.7423 33.0185 19.7895V23.151C33.0185 24.1982 33.1127 25.0045 33.3012 25.57C33.4897 26.1355 33.7567 26.4182 34.1022 26.4182Z"/>
</mask>
<path d="M4.6399 30.0939C4.08233 30.0939 3.57974 29.8635 3.13211 29.4027C2.68449 28.921 2.30361 28.2194 1.98949 27.2979C1.67537 26.3554 1.43192 25.193 1.25915 23.8107C1.08638 22.4075 1 20.7739 1 18.9099C1 17.0668 1.08638 15.4332 1.25915 14.009C1.43192 12.5639 1.67537 11.3597 1.98949 10.3962C2.30361 9.41189 2.68449 8.66838 3.13211 8.16573C3.57974 7.66308 4.08233 7.41176 4.6399 7.41176C5.40165 7.41176 6.0299 7.83063 6.52464 8.66838C7.01939 9.48519 7.41597 10.7837 7.71439 12.5639L6.17126 14.7002C6.06131 13.7787 5.88854 13.0456 5.65295 12.5011C5.42521 11.9356 5.08753 11.6529 4.6399 11.6529C4.11375 11.6529 3.68968 12.1136 3.3677 13.0352C3.05358 13.9357 2.89652 15.2552 2.89652 16.9935V20.5121C2.89652 22.2504 3.05358 23.5803 3.3677 24.5019C3.68968 25.4025 4.11375 25.8527 4.6399 25.8527C5.07968 25.8527 5.42914 25.5386 5.68829 24.9103C5.9553 24.261 6.15162 23.4861 6.27727 22.5855L7.73795 24.8474C7.43167 26.5229 7.02724 27.8215 6.52464 28.743C6.0299 29.6436 5.40165 30.0939 4.6399 30.0939Z" fill="#55C2FF"/>
<path d="M8.89667 29.7169V13.2237H10.6401V16.805H10.699C10.7304 16.3443 10.7853 15.9045 10.8639 15.4856C10.9424 15.0458 11.0445 14.6583 11.1701 14.3232C11.3036 13.9881 11.4607 13.7263 11.6413 13.5378C11.8219 13.3284 12.034 13.2237 12.2774 13.2237H12.5837V17.559H12.1478C11.6374 17.559 11.2565 17.737 11.0052 18.0931C10.7618 18.4491 10.6401 19.1088 10.6401 20.0723V29.7169H8.89667Z" fill="#55C2FF"/>
<path d="M17.5209 13.2237H19.1465L16.767 32.2615C16.61 33.5391 16.3862 34.4816 16.0956 35.0889C15.8129 35.6963 15.4045 36 14.8705 36H13.7868V32.3872H14.953L15.165 30.5651L12.9975 13.2237H14.7292L15.6362 20.9205L16.0838 25.6957H16.1545L16.6139 20.9205L17.5209 13.2237Z" fill="#55C2FF"/>
<path d="M20.0321 13.2237H21.7755V15.9882H21.8344C21.9208 15.0667 22.1171 14.3127 22.4234 13.7263C22.7375 13.1399 23.0948 12.8467 23.4953 12.8467C24.2806 12.8467 24.8735 13.5797 25.274 15.0458C25.6745 16.5118 25.8748 18.6481 25.8748 21.4546C25.8748 24.261 25.6745 26.4078 25.274 27.8948C24.8735 29.3608 24.2806 30.0939 23.4953 30.0939C23.2911 30.0939 23.0987 30.0101 22.9181 29.8425C22.7375 29.6959 22.5726 29.4865 22.4234 29.2142C22.282 28.921 22.1603 28.5859 22.0582 28.2089C21.9561 27.811 21.8815 27.3921 21.8344 26.9523H21.7755V36H20.0321V13.2237ZM22.9181 26.324C23.2479 26.324 23.5189 26.0203 23.7309 25.4129C23.9508 24.7846 24.0607 23.9469 24.0607 22.8997V20.0408C24.0607 18.9937 23.9508 18.1664 23.7309 17.559C23.5189 16.9307 23.2479 16.6165 22.9181 16.6165C22.5883 16.6165 22.3134 16.8365 22.0935 17.2763C21.8815 17.6951 21.7755 18.2816 21.7755 19.0355V23.905C21.7755 24.6589 21.8815 25.2558 22.0935 25.6957C22.3134 26.1145 22.5883 26.324 22.9181 26.324Z" fill="#55C2FF"/>
<path d="M29.2972 29.7169C28.6925 29.7169 28.2331 29.3085 27.919 28.4917C27.6127 27.6748 27.4596 26.4811 27.4596 24.9103V16.8365H26.5879V13.2237H27.0238C27.2594 13.2237 27.4203 13.077 27.5067 12.7838C27.5931 12.4697 27.6363 12.0299 27.6363 11.4644V8.76263H29.203V13.2237H30.4281V16.8365H29.203V26.1041H30.3338V29.7169H29.2972Z" fill="#55C2FF"/>
<path d="M34.1022 30.0939C33.6467 30.0939 33.2384 29.8949 32.8771 29.497C32.5237 29.099 32.2214 28.5231 31.9701 27.7691C31.7267 27.0151 31.5382 26.1041 31.4047 25.0359C31.2712 23.9678 31.2044 22.774 31.2044 21.4546C31.2044 20.1351 31.2712 18.9413 31.4047 17.8732C31.5382 16.805 31.7267 15.9045 31.9701 15.1714C32.2214 14.4174 32.5237 13.8415 32.8771 13.4436C33.2384 13.0456 33.6467 12.8467 34.1022 12.8467C34.5577 12.8467 34.9621 13.0456 35.3155 13.4436C35.6768 13.8415 35.9791 14.4174 36.2225 15.1714C36.4738 15.9045 36.6662 16.805 36.7997 17.8732C36.9333 18.9413 37 20.1351 37 21.4546C37 22.774 36.9333 23.9678 36.7997 25.0359C36.6662 26.1041 36.4738 27.0151 36.2225 27.7691C35.9791 28.5231 35.6768 29.099 35.3155 29.497C34.9621 29.8949 34.5577 30.0939 34.1022 30.0939ZM34.1022 26.4182C34.4478 26.4182 34.7148 26.1355 34.9032 25.57C35.0917 25.0045 35.1859 24.1982 35.1859 23.151V19.7895C35.1859 18.7423 35.0917 17.936 34.9032 17.3705C34.7148 16.805 34.4478 16.5223 34.1022 16.5223C33.7567 16.5223 33.4897 16.805 33.3012 17.3705C33.1127 17.936 33.0185 18.7423 33.0185 19.7895V23.151C33.0185 24.1982 33.1127 25.0045 33.3012 25.57C33.4897 26.1355 33.7567 26.4182 34.1022 26.4182Z" fill="#55C2FF"/>
<path d="M4.6399 30.0939C4.08233 30.0939 3.57974 29.8635 3.13211 29.4027C2.68449 28.921 2.30361 28.2194 1.98949 27.2979C1.67537 26.3554 1.43192 25.193 1.25915 23.8107C1.08638 22.4075 1 20.7739 1 18.9099C1 17.0668 1.08638 15.4332 1.25915 14.009C1.43192 12.5639 1.67537 11.3597 1.98949 10.3962C2.30361 9.41189 2.68449 8.66838 3.13211 8.16573C3.57974 7.66308 4.08233 7.41176 4.6399 7.41176C5.40165 7.41176 6.0299 7.83063 6.52464 8.66838C7.01939 9.48519 7.41597 10.7837 7.71439 12.5639L6.17126 14.7002C6.06131 13.7787 5.88854 13.0456 5.65295 12.5011C5.42521 11.9356 5.08753 11.6529 4.6399 11.6529C4.11375 11.6529 3.68968 12.1136 3.3677 13.0352C3.05358 13.9357 2.89652 15.2552 2.89652 16.9935V20.5121C2.89652 22.2504 3.05358 23.5803 3.3677 24.5019C3.68968 25.4025 4.11375 25.8527 4.6399 25.8527C5.07968 25.8527 5.42914 25.5386 5.68829 24.9103C5.9553 24.261 6.15162 23.4861 6.27727 22.5855L7.73795 24.8474C7.43167 26.5229 7.02724 27.8215 6.52464 28.743C6.0299 29.6436 5.40165 30.0939 4.6399 30.0939Z" stroke="black" stroke-width="2" mask="url(#path-1-outside-1_543_138)"/>
<path d="M8.89667 29.7169V13.2237H10.6401V16.805H10.699C10.7304 16.3443 10.7853 15.9045 10.8639 15.4856C10.9424 15.0458 11.0445 14.6583 11.1701 14.3232C11.3036 13.9881 11.4607 13.7263 11.6413 13.5378C11.8219 13.3284 12.034 13.2237 12.2774 13.2237H12.5837V17.559H12.1478C11.6374 17.559 11.2565 17.737 11.0052 18.0931C10.7618 18.4491 10.6401 19.1088 10.6401 20.0723V29.7169H8.89667Z" stroke="black" stroke-width="2" mask="url(#path-1-outside-1_543_138)"/>
<path d="M17.5209 13.2237H19.1465L16.767 32.2615C16.61 33.5391 16.3862 34.4816 16.0956 35.0889C15.8129 35.6963 15.4045 36 14.8705 36H13.7868V32.3872H14.953L15.165 30.5651L12.9975 13.2237H14.7292L15.6362 20.9205L16.0838 25.6957H16.1545L16.6139 20.9205L17.5209 13.2237Z" stroke="black" stroke-width="2" mask="url(#path-1-outside-1_543_138)"/>
<path d="M20.0321 13.2237H21.7755V15.9882H21.8344C21.9208 15.0667 22.1171 14.3127 22.4234 13.7263C22.7375 13.1399 23.0948 12.8467 23.4953 12.8467C24.2806 12.8467 24.8735 13.5797 25.274 15.0458C25.6745 16.5118 25.8748 18.6481 25.8748 21.4546C25.8748 24.261 25.6745 26.4078 25.274 27.8948C24.8735 29.3608 24.2806 30.0939 23.4953 30.0939C23.2911 30.0939 23.0987 30.0101 22.9181 29.8425C22.7375 29.6959 22.5726 29.4865 22.4234 29.2142C22.282 28.921 22.1603 28.5859 22.0582 28.2089C21.9561 27.811 21.8815 27.3921 21.8344 26.9523H21.7755V36H20.0321V13.2237ZM22.9181 26.324C23.2479 26.324 23.5189 26.0203 23.7309 25.4129C23.9508 24.7846 24.0607 23.9469 24.0607 22.8997V20.0408C24.0607 18.9937 23.9508 18.1664 23.7309 17.559C23.5189 16.9307 23.2479 16.6165 22.9181 16.6165C22.5883 16.6165 22.3134 16.8365 22.0935 17.2763C21.8815 17.6951 21.7755 18.2816 21.7755 19.0355V23.905C21.7755 24.6589 21.8815 25.2558 22.0935 25.6957C22.3134 26.1145 22.5883 26.324 22.9181 26.324Z" stroke="black" stroke-width="2" mask="url(#path-1-outside-1_543_138)"/>
<path d="M29.2972 29.7169C28.6925 29.7169 28.2331 29.3085 27.919 28.4917C27.6127 27.6748 27.4596 26.4811 27.4596 24.9103V16.8365H26.5879V13.2237H27.0238C27.2594 13.2237 27.4203 13.077 27.5067 12.7838C27.5931 12.4697 27.6363 12.0299 27.6363 11.4644V8.76263H29.203V13.2237H30.4281V16.8365H29.203V26.1041H30.3338V29.7169H29.2972Z" stroke="black" stroke-width="2" mask="url(#path-1-outside-1_543_138)"/>
<path d="M34.1022 30.0939C33.6467 30.0939 33.2384 29.8949 32.8771 29.497C32.5237 29.099 32.2214 28.5231 31.9701 27.7691C31.7267 27.0151 31.5382 26.1041 31.4047 25.0359C31.2712 23.9678 31.2044 22.774 31.2044 21.4546C31.2044 20.1351 31.2712 18.9413 31.4047 17.8732C31.5382 16.805 31.7267 15.9045 31.9701 15.1714C32.2214 14.4174 32.5237 13.8415 32.8771 13.4436C33.2384 13.0456 33.6467 12.8467 34.1022 12.8467C34.5577 12.8467 34.9621 13.0456 35.3155 13.4436C35.6768 13.8415 35.9791 14.4174 36.2225 15.1714C36.4738 15.9045 36.6662 16.805 36.7997 17.8732C36.9333 18.9413 37 20.1351 37 21.4546C37 22.774 36.9333 23.9678 36.7997 25.0359C36.6662 26.1041 36.4738 27.0151 36.2225 27.7691C35.9791 28.5231 35.6768 29.099 35.3155 29.497C34.9621 29.8949 34.5577 30.0939 34.1022 30.0939ZM34.1022 26.4182C34.4478 26.4182 34.7148 26.1355 34.9032 25.57C35.0917 25.0045 35.1859 24.1982 35.1859 23.151V19.7895C35.1859 18.7423 35.0917 17.936 34.9032 17.3705C34.7148 16.805 34.4478 16.5223 34.1022 16.5223C33.7567 16.5223 33.4897 16.805 33.3012 17.3705C33.1127 17.936 33.0185 18.7423 33.0185 19.7895V23.151C33.0185 24.1982 33.1127 25.0045 33.3012 25.57C33.4897 26.1355 33.7567 26.4182 34.1022 26.4182Z" stroke="black" stroke-width="2" mask="url(#path-1-outside-1_543_138)"/>
<path d="M8.93478 0.5H21.6304V3.73529H8.93478V0.5Z" fill="#55C2FF" stroke="black"/>
</svg>
